<svg xmlns="http://www.w3.org/2000/svg" xmlns:xlink="http://www.w3.org/1999/xlink" width="400" zoomAndPan="magnify" viewBox="0 0 300 89.999999" height="120" preserveAspectRatio="xMidYMid meet" version="1.0"><defs><g/><clipPath id="13aef54cb6"><path d="M 5.425781 2 L 78 2 L 78 88 L 5.425781 88 Z M 5.425781 2 " clip-rule="nonzero"/></clipPath><clipPath id="c887d9a046"><rect x="0" width="144" y="0" height="43"/></clipPath></defs><path fill="#4076ff" d="M 150 54.707031 L 125.835938 87.957031 L 77.710938 21.453125 L 85.765625 10.300781 C 89.691406 4.722656 95.886719 2.039062 101.875 2.039062 C 107.867188 2.039062 113.855469 4.722656 117.78125 10.09375 Z M 150 54.707031 " fill-opacity="1" fill-rule="nonzero"/><g clip-path="url(#13aef54cb6)"><path fill="#00bf63" d="M 77.710938 21.453125 L 29.589844 87.957031 L 5.425781 54.707031 L 37.644531 10.09375 C 41.566406 4.722656 47.558594 2.039062 53.546875 2.039062 C 59.535156 2.039062 65.527344 4.722656 69.449219 10.09375 Z M 77.710938 21.453125 " fill-opacity="1" fill-rule="nonzero"/></g><path fill="#004aad" d="M 125.835938 21.453125 L 77.710938 87.957031 L 53.546875 54.707031 C 84.527344 12.160156 85.765625 10.09375 85.765625 10.09375 C 89.691406 4.722656 95.886719 2.039062 101.875 2.039062 C 107.867188 2.039062 113.855469 4.722656 117.78125 10.09375 Z M 125.835938 21.453125 " fill-opacity="1" fill-rule="nonzero"/><g transform="matrix(1, 0, 0, 1, 154, 31)"><g clip-path="url(#c887d9a046)"><g fill="#004aad" fill-opacity="1"><g transform="translate(0.884261, 32.075174)"><g><path d="M 25.578125 -20.953125 L 25.578125 0 L 20.46875 0 L 20.46875 -12.5625 L 15.78125 0 L 11.671875 0 L 6.953125 -12.59375 L 6.953125 0 L 1.84375 0 L 1.84375 -20.953125 L 7.875 -20.953125 L 13.765625 -6.453125 L 19.578125 -20.953125 Z M 25.578125 -20.953125 "/></g></g></g><g fill="#004aad" fill-opacity="1"><g transform="translate(26.28199, 32.075174)"><g><path d="M 6.953125 -20.953125 L 6.953125 0 L 1.84375 0 L 1.84375 -20.953125 Z M 6.953125 -20.953125 "/></g></g></g><g fill="#004aad" fill-opacity="1"><g transform="translate(33.086083, 32.075174)"><g><path d="M 19.8125 -20.953125 L 12.5625 -6.921875 L 12.5625 0 L 7.46875 0 L 7.46875 -6.921875 L 0.203125 -20.953125 L 6 -20.953125 L 10.0625 -12.171875 L 14.09375 -20.953125 Z M 19.8125 -20.953125 "/></g></g></g><g fill="#004aad" fill-opacity="1"><g transform="translate(51.112014, 32.075174)"><g><path d="M 11.765625 0.203125 C 9.785156 0.203125 7.972656 -0.25 6.328125 -1.15625 C 4.691406 -2.070312 3.390625 -3.351562 2.421875 -5 C 1.460938 -6.644531 0.984375 -8.488281 0.984375 -10.53125 C 0.984375 -12.582031 1.460938 -14.421875 2.421875 -16.046875 C 3.390625 -17.679688 4.691406 -18.957031 6.328125 -19.875 C 7.972656 -20.789062 9.785156 -21.25 11.765625 -21.25 C 13.734375 -21.25 15.535156 -20.789062 17.171875 -19.875 C 18.816406 -18.957031 20.109375 -17.679688 21.046875 -16.046875 C 21.992188 -14.421875 22.46875 -12.582031 22.46875 -10.53125 C 22.46875 -8.488281 21.988281 -6.644531 21.03125 -5 C 20.082031 -3.351562 18.789062 -2.070312 17.15625 -1.15625 C 15.53125 -0.25 13.734375 0.203125 11.765625 0.203125 Z M 11.765625 -4.453125 C 13.429688 -4.453125 14.765625 -5.007812 15.765625 -6.125 C 16.773438 -7.238281 17.28125 -8.707031 17.28125 -10.53125 C 17.28125 -12.382812 16.773438 -13.863281 15.765625 -14.96875 C 14.765625 -16.070312 13.429688 -16.625 11.765625 -16.625 C 10.066406 -16.625 8.710938 -16.078125 7.703125 -14.984375 C 6.703125 -13.890625 6.203125 -12.40625 6.203125 -10.53125 C 6.203125 -8.6875 6.703125 -7.210938 7.703125 -6.109375 C 8.710938 -5.003906 10.066406 -4.453125 11.765625 -4.453125 Z M 11.765625 -4.453125 "/></g></g></g><g fill="#004aad" fill-opacity="1"><g transform="translate(72.57016, 32.075174)"><g><path d="M 25.578125 -20.953125 L 25.578125 0 L 20.46875 0 L 20.46875 -12.5625 L 15.78125 0 L 11.671875 0 L 6.953125 -12.59375 L 6.953125 0 L 1.84375 0 L 1.84375 -20.953125 L 7.875 -20.953125 L 13.765625 -6.453125 L 19.578125 -20.953125 Z M 25.578125 -20.953125 "/></g></g></g><g fill="#004aad" fill-opacity="1"><g transform="translate(97.967888, 32.075174)"><g><path d="M 6.953125 -20.953125 L 6.953125 0 L 1.84375 0 L 1.84375 -20.953125 Z M 6.953125 -20.953125 "/></g></g></g><g fill="#004aad" fill-opacity="1"><g transform="translate(104.771982, 32.075174)"><g><path d="M 20.59375 0 L 15.484375 0 L 6.953125 -12.921875 L 6.953125 0 L 1.84375 0 L 1.84375 -20.953125 L 6.953125 -20.953125 L 15.484375 -7.96875 L 15.484375 -20.953125 L 20.59375 -20.953125 Z M 20.59375 0 "/></g></g></g><g fill="#004aad" fill-opacity="1"><g transform="translate(125.215381, 32.075174)"><g><path d="M 16.921875 -20.953125 L 16.921875 -16.859375 L 11.375 -16.859375 L 11.375 0 L 6.265625 0 L 6.265625 -16.859375 L 0.71875 -16.859375 L 0.71875 -20.953125 Z M 16.921875 -20.953125 "/></g></g></g></g></g></svg>