<svg xmlns="http://www.w3.org/2000/svg" viewBox="0 0 120 120" role="img" aria-label="AI robot">
  <defs>
    <linearGradient id="g1" x1="0%" y1="0%" x2="100%" y2="100%">
      <stop offset="0%" stop-color="#6dd5ed"/>
      <stop offset="100%" stop-color="#2193b0"/>
    </linearGradient>
    <linearGradient id="g2" x1="0%" y1="0%" x2="100%" y2="0%">
      <stop offset="0%" stop-color="#dfe9f3"/>
      <stop offset="100%" stop-color="#ffffff"/>
    </linearGradient>
  </defs>
  <rect x="12" y="20" width="96" height="80" rx="18" fill="url(#g2)" stroke="#d0d8e0" stroke-width="4"/>
  <rect x="30" y="46" width="60" height="34" rx="8" fill="#0ea5e9" opacity="0.12"/>
  <rect x="50" y="10" width="20" height="12" rx="4" fill="url(#g1)"/>
  <circle cx="40" cy="58" r="10" fill="#0f172a" opacity="0.16"/>
  <circle cx="80" cy="58" r="10" fill="#0f172a" opacity="0.16"/>
  <circle cx="40" cy="58" r="7" fill="#0ea5e9"/>
  <circle cx="80" cy="58" r="7" fill="#0ea5e9"/>
  <rect x="32" y="78" width="56" height="8" rx="4" fill="#94a3b8"/>
  <rect x="24" y="30" width="72" height="46" rx="14" fill="url(#g2)" stroke="#c5ced8" stroke-width="3"/>
  <circle cx="40" cy="55" r="8" fill="#0ea5e9" />
  <circle cx="80" cy="55" r="8" fill="#0ea5e9" />
  <rect x="46" y="72" width="28" height="6" rx="3" fill="#0f172a" opacity="0.2"/>
  <rect x="56" y="88" width="8" height="12" rx="2" fill="#475569"/>
  <circle cx="60" cy="26" r="4" fill="#0ea5e9"/>
</svg>
